<svg width="34" height="34" viewBox="0 0 34 34" fill="none" xmlns="http://www.w3.org/2000/svg">
<g filter="url(#filter0_d_147_183)">
<path d="M4 13C4 20.1797 9.8203 26 17 26C24.1797 26 30 20.1797 30 13C30 5.8203 24.1797 0 17 0C9.8203 0 4 5.8203 4 13Z" fill="#4349D8"/>
</g>
<g filter="url(#filter1_d_147_183)">
<path d="M11 13C11 16.3137 13.6863 19 17 19C20.3137 19 23 16.3137 23 13C23 9.68629 20.3137 7 17 7C13.6863 7 11 9.68629 11 13Z" fill="white"/>
</g>
<defs>
<filter id="filter0_d_147_183" x="0" y="0" width="34" height="34" filterUnits="userSpaceOnUse" color-interpolation-filters="sRGB">
<feFlood flood-opacity="0" result="BackgroundImageFix"/>
<feColorMatrix in="SourceAlpha" type="matrix" values="0 0 0 0 0 0 0 0 0 0 0 0 0 0 0 0 0 0 127 0" result="hardAlpha"/>
<feOffset dy="4"/>
<feGaussianBlur stdDeviation="2"/>
<feComposite in2="hardAlpha" operator="out"/>
<feColorMatrix type="matrix" values="0 0 0 0 0 0 0 0 0 0 0 0 0 0 0 0 0 0 0.25 0"/>
<feBlend mode="normal" in2="BackgroundImageFix" result="effect1_dropShadow_147_183"/>
<feBlend mode="normal" in="SourceGraphic" in2="effect1_dropShadow_147_183" result="shape"/>
</filter>
<filter id="filter1_d_147_183" x="7" y="7" width="20" height="20" filterUnits="userSpaceOnUse" color-interpolation-filters="sRGB">
<feFlood flood-opacity="0" result="BackgroundImageFix"/>
<feColorMatrix in="SourceAlpha" type="matrix" values="0 0 0 0 0 0 0 0 0 0 0 0 0 0 0 0 0 0 127 0" result="hardAlpha"/>
<feOffset dy="4"/>
<feGaussianBlur stdDeviation="2"/>
<feComposite in2="hardAlpha" operator="out"/>
<feColorMatrix type="matrix" values="0 0 0 0 0 0 0 0 0 0 0 0 0 0 0 0 0 0 0.25 0"/>
<feBlend mode="normal" in2="BackgroundImageFix" result="effect1_dropShadow_147_183"/>
<feBlend mode="normal" in="SourceGraphic" in2="effect1_dropShadow_147_183" result="shape"/>
</filter>
</defs>
</svg>
