<svg width="24" height="24" viewBox="0 0 24 24" fill="none" xmlns="http://www.w3.org/2000/svg">
<g clip-path="url(#clip0_237_206)">
<path fill-rule="evenodd" clip-rule="evenodd" d="M12.0003 13.4139L17.6573 19.0709C17.8459 19.2531 18.0985 19.3539 18.3607 19.3516C18.6229 19.3493 18.8737 19.2441 19.0591 19.0587C19.2445 18.8733 19.3497 18.6225 19.352 18.3603C19.3543 18.0981 19.2535 17.8455 19.0713 17.6569L13.4143 11.9999L19.0713 6.34291C19.2535 6.1543 19.3543 5.9017 19.352 5.6395C19.3497 5.37731 19.2445 5.1265 19.0591 4.94109C18.8737 4.75568 18.6229 4.65051 18.3607 4.64823C18.0985 4.64595 17.8459 4.74675 17.6573 4.92891L12.0003 10.5859L6.34331 4.92891C6.15386 4.75125 5.90272 4.65427 5.64304 4.65849C5.38336 4.6627 5.1355 4.76779 4.95192 4.9515C4.76834 5.13521 4.66343 5.38314 4.6594 5.64283C4.65537 5.90251 4.75252 6.15358 4.93031 6.34291L10.5863 11.9999L4.92931 17.6569C4.8338 17.7492 4.75762 17.8595 4.70521 17.9815C4.6528 18.1035 4.62522 18.2347 4.62406 18.3675C4.62291 18.5003 4.64821 18.632 4.69849 18.7549C4.74877 18.8778 4.82302 18.9894 4.91692 19.0833C5.01081 19.1772 5.12246 19.2514 5.24536 19.3017C5.36825 19.352 5.49993 19.3773 5.63271 19.3762C5.76549 19.375 5.89671 19.3474 6.01872 19.295C6.14072 19.2426 6.25106 19.1664 6.34331 19.0709L12.0003 13.4139Z" fill="black"/>
</g>
<defs>
<clipPath id="clip0_237_206">
<rect width="24" height="24" fill="white"/>
</clipPath>
</defs>
</svg>
