<svg width="14" height="20" viewBox="0 0 14 20" fill="none" xmlns="http://www.w3.org/2000/svg">
<path d="M11.6681 6.375C12.3406 6.02844 12.8771 5.46601 13.1915 4.77799C13.506 4.08996 13.5802 3.31623 13.4022 2.58098C13.2243 1.84573 12.8044 1.19159 12.2101 0.723539C11.6158 0.255492 10.8815 0.000680716 10.125 0H3.375C2.61851 0.000680716 1.88419 0.255492 1.28988 0.723539C0.695574 1.19159 0.275743 1.84573 0.0977688 2.58098C-0.0802055 3.31623 -0.00600292 4.08996 0.308468 4.77799C0.622939 5.46601 1.15944 6.02844 1.83188 6.375C1.26862 6.66523 0.798445 7.10815 0.475142 7.65309C0.15184 8.19803 -0.0115277 8.82298 0.00373129 9.45642C0.0189903 10.0899 0.21226 10.7062 0.561427 11.235C0.910593 11.7637 1.40155 12.1835 1.97813 12.4462C1.39352 12.7597 0.902513 13.2225 0.555185 13.7877C0.207857 14.3528 0.0166391 14.9999 0.00103763 15.663C-0.0145638 16.3262 0.14601 16.9816 0.466378 17.5624C0.786746 18.1432 1.25544 18.6287 1.82466 18.9692C2.39388 19.3098 3.04324 19.4933 3.70652 19.501C4.36979 19.5087 5.02324 19.3403 5.6002 19.013C6.17716 18.6858 6.65699 18.2113 6.99074 17.6381C7.32449 17.0648 7.50022 16.4133 7.5 15.75V11.4928C7.81499 11.8852 8.21373 12.2022 8.66706 12.4206C9.12038 12.639 9.6168 12.7533 10.12 12.7551C10.6232 12.7569 11.1204 12.6461 11.5753 12.431C12.0301 12.2158 12.4311 11.9016 12.7489 11.5114C13.0666 11.1213 13.2931 10.665 13.4118 10.176C13.5304 9.68698 13.5383 9.17764 13.4346 8.68523C13.331 8.19282 13.1186 7.7298 12.813 7.33008C12.5073 6.93035 12.1162 6.60403 11.6681 6.375ZM12.75 3.375C12.75 4.07119 12.4734 4.73887 11.9812 5.23116C11.4889 5.72344 10.8212 6 10.125 6H7.5V0.75H10.125C10.8212 0.75 11.4889 1.02656 11.9812 1.51884C12.4734 2.01113 12.75 2.67881 12.75 3.375ZM7.5 6.75H8.00719C7.82078 6.90078 7.65078 7.07078 7.5 7.25719V6.75ZM0.75 3.375C0.75 2.67881 1.02656 2.01113 1.51885 1.51884C2.01113 1.02656 2.67881 0.75 3.375 0.75H6.75V6H3.375C2.67881 6 2.01113 5.72344 1.51885 5.23116C1.02656 4.73887 0.75 4.07119 0.75 3.375ZM6.75 15.75C6.75 16.3433 6.57405 16.9234 6.24441 17.4167C5.91476 17.9101 5.44623 18.2946 4.89805 18.5216C4.34987 18.7487 3.74667 18.8081 3.16473 18.6924C2.58279 18.5766 2.04824 18.2909 1.62868 17.8713C1.20912 17.4518 0.9234 16.9172 0.807644 16.3353C0.691888 15.7533 0.751298 15.1501 0.978361 14.602C1.20542 14.0538 1.58994 13.5852 2.08329 13.2556C2.57664 12.9259 3.15666 12.75 3.75 12.75H6.75V15.75ZM6.75 12H3.375C2.67881 12 2.01113 11.7234 1.51885 11.2312C1.02656 10.7389 0.75 10.0712 0.75 9.375C0.75 8.67881 1.02656 8.01113 1.51885 7.51884C2.01113 7.02656 2.67881 6.75 3.375 6.75H6.75V12ZM10.125 12C9.60582 12 9.09831 11.846 8.66663 11.5576C8.23495 11.2692 7.8985 10.8592 7.69982 10.3795C7.50114 9.89989 7.44915 9.37209 7.55044 8.86289C7.65172 8.35369 7.90173 7.88596 8.26884 7.51884C8.63596 7.15173 9.10369 6.90172 9.61289 6.80044C10.1221 6.69915 10.6499 6.75114 11.1295 6.94982C11.6092 7.1485 12.0192 7.48495 12.3076 7.91663C12.596 8.34831 12.75 8.85582 12.75 9.375C12.75 10.0712 12.4734 10.7389 11.9812 11.2312C11.4889 11.7234 10.8212 12 10.125 12Z" fill="black"/>
</svg>
