<svg width="25" height="24" viewBox="0 0 25 24" fill="none" xmlns="http://www.w3.org/2000/svg">
<path d="M24.9999 12C25.0028 12.3518 24.8914 12.6957 24.6813 12.9839C24.4713 13.2721 24.1729 13.4903 23.8277 13.6081L16.7452 16.0814L14.1708 22.8816C14.0439 23.2099 13.8154 23.493 13.5161 23.6929C13.2167 23.8928 12.8608 24 12.4962 24C12.1316 24 11.7757 23.8928 11.4763 23.6929C11.1769 23.493 10.9485 23.2099 10.8216 22.8816L8.24715 16.0803L1.16466 13.6081C0.822815 13.4863 0.527989 13.2669 0.319792 12.9794C0.111594 12.6919 0 12.3502 0 12C0 11.6498 0.111594 11.3081 0.319792 11.0206C0.527989 10.7331 0.822815 10.5137 1.16466 10.3919L8.24715 7.91967L10.8216 1.11842C10.9485 0.790143 11.1769 0.507024 11.4763 0.307093C11.7757 0.107163 12.1316 0 12.4962 0C12.8608 0 13.2167 0.107163 13.5161 0.307093C13.8154 0.507024 14.0439 0.790143 14.1708 1.11842L16.7464 7.91967L23.8277 10.3919C24.1729 10.5097 24.4713 10.7279 24.6813 11.0161C24.8914 11.3043 25.0028 11.6482 24.9999 12Z" fill="black"/>
</svg>
