<svg width="21" height="21" viewBox="0 0 21 21" fill="none" xmlns="http://www.w3.org/2000/svg">
<path d="M19.7627 9.08272L13.7337 6.88991L11.5408 0.860846C11.4491 0.608562 11.2819 0.390622 11.0621 0.236616C10.8422 0.0826107 10.5802 0 10.3118 0C10.0433 0 9.78139 0.0826107 9.56151 0.236616C9.34163 0.390622 9.17447 0.608562 9.08272 0.860846L6.88991 6.88991L0.860846 9.08272C0.608562 9.17447 0.390622 9.34163 0.236616 9.56151C0.0826107 9.78139 0 10.0433 0 10.3118C0 10.5802 0.0826107 10.8422 0.236616 11.0621C0.390622 11.2819 0.608562 11.4491 0.860846 11.5408L6.88991 13.7337L9.08272 19.7627C9.17447 20.015 9.34163 20.2329 9.56151 20.3869C9.78139 20.541 10.0433 20.6236 10.3118 20.6236C10.5802 20.6236 10.8422 20.541 11.0621 20.3869C11.2819 20.2329 11.4491 20.015 11.5408 19.7627L13.7337 13.7337L19.7627 11.5408C20.015 11.4491 20.2329 11.2819 20.3869 11.0621C20.541 10.8422 20.6236 10.5802 20.6236 10.3118C20.6236 10.0433 20.541 9.78139 20.3869 9.56151C20.2329 9.34163 20.015 9.17447 19.7627 9.08272ZM19.3783 10.489L13.1027 12.7708C13.0254 12.7989 12.9552 12.8436 12.8971 12.9018C12.8389 12.9599 12.7942 13.0301 12.7662 13.1074L10.4843 19.383C10.4699 19.4169 10.4458 19.4457 10.4152 19.466C10.3845 19.4862 10.3485 19.497 10.3118 19.497C10.275 19.497 10.2391 19.4862 10.2084 19.466C10.1777 19.4457 10.1537 19.4169 10.1393 19.383L7.85741 13.1074C7.82932 13.0301 7.78463 12.9599 7.72648 12.9018C7.66833 12.8436 7.59814 12.7989 7.52085 12.7708L1.24522 10.4843C1.2114 10.4699 1.18256 10.4458 1.16229 10.4152C1.14201 10.3845 1.13121 10.3485 1.13121 10.3118C1.13121 10.275 1.14201 10.2391 1.16229 10.2084C1.18256 10.1777 1.2114 10.1537 1.24522 10.1393L7.52085 7.85741C7.59814 7.82932 7.66833 7.78463 7.72648 7.72648C7.78463 7.66833 7.82932 7.59814 7.85741 7.52085L10.1393 1.24522C10.1537 1.2114 10.1777 1.18256 10.2084 1.16229C10.2391 1.14201 10.275 1.13121 10.3118 1.13121C10.3485 1.13121 10.3845 1.14201 10.4152 1.16229C10.4458 1.18256 10.4699 1.2114 10.4843 1.24522L12.7662 7.52085C12.7942 7.59814 12.8389 7.66833 12.8971 7.72648C12.9552 7.78463 13.0254 7.82932 13.1027 7.85741L19.3783 10.1393C19.4122 10.1537 19.441 10.1777 19.4613 10.2084C19.4816 10.2391 19.4924 10.275 19.4924 10.3118C19.4924 10.3485 19.4816 10.3845 19.4613 10.4152C19.441 10.4458 19.4122 10.4699 19.3783 10.4843V10.489Z" fill="black"/>
</svg>
